<?xml version="1.0" encoding="UTF-8" standalone="no"?>
<!DOCTYPE svg PUBLIC "-//W3C//DTD SVG 1.1//EN"
 "http://www.w3.org/Graphics/SVG/1.1/DTD/svg11.dtd">
<!-- Generated by graphviz version 2.43.0 (0)
 -->
<!-- Title: classes_spectra Pages: 1 -->
<svg width="2560pt" height="453pt"
 viewBox="0.00 0.00 2560.00 453.00" xmlns="http://www.w3.org/2000/svg" xmlns:xlink="http://www.w3.org/1999/xlink">
<g id="graph0" class="graph" transform="scale(1 1) rotate(0) translate(4 449)">
<title>classes_spectra</title>
<polygon fill="white" stroke="transparent" points="-4,4 -4,-449 2556,-449 2556,4 -4,4"/>
<!-- app.models.AnonymousUser -->
<g id="node1" class="node">
<title>app.models.AnonymousUser</title>
<polygon fill="none" stroke="black" points="0,-180 0,-265 144,-265 144,-180 0,-180"/>
<text text-anchor="middle" x="72" y="-249.8" font-family="Times,serif" font-size="14.00">AnonymousUser</text>
<polyline fill="none" stroke="black" points="0,-242 144,-242 "/>
<polyline fill="none" stroke="black" points="0,-218 144,-218 "/>
<text text-anchor="start" x="8" y="-202.8" font-family="Times,serif" font-size="14.00">can(permissions)</text>
<text text-anchor="start" x="8" y="-187.8" font-family="Times,serif" font-size="14.00">is_administrator()</text>
</g>
<!-- app.auth.forms.ChangeEmailForm -->
<g id="node2" class="node">
<title>app.auth.forms.ChangeEmailForm</title>
<polygon fill="none" stroke="black" points="162.5,-173 162.5,-272 323.5,-272 323.5,-173 162.5,-173"/>
<text text-anchor="middle" x="243" y="-256.8" font-family="Times,serif" font-size="14.00">ChangeEmailForm</text>
<polyline fill="none" stroke="black" points="162.5,-249 323.5,-249 "/>
<text text-anchor="start" x="170.5" y="-233.8" font-family="Times,serif" font-size="14.00">email</text>
<text text-anchor="start" x="170.5" y="-218.8" font-family="Times,serif" font-size="14.00">password</text>
<text text-anchor="start" x="170.5" y="-203.8" font-family="Times,serif" font-size="14.00">submit</text>
<polyline fill="none" stroke="black" points="162.5,-196 323.5,-196 "/>
<text text-anchor="start" x="170.5" y="-180.8" font-family="Times,serif" font-size="14.00">validate_email(field)</text>
</g>
<!-- app.auth.forms.ChangePasswordForm -->
<g id="node3" class="node">
<title>app.auth.forms.ChangePasswordForm</title>
<polygon fill="none" stroke="black" points="342,-165.5 342,-279.5 518,-279.5 518,-165.5 342,-165.5"/>
<text text-anchor="middle" x="430" y="-264.3" font-family="Times,serif" font-size="14.00">ChangePasswordForm</text>
<polyline fill="none" stroke="black" points="342,-256.5 518,-256.5 "/>
<text text-anchor="start" x="350" y="-241.3" font-family="Times,serif" font-size="14.00">old_password</text>
<text text-anchor="start" x="350" y="-226.3" font-family="Times,serif" font-size="14.00">password</text>
<text text-anchor="start" x="350" y="-211.3" font-family="Times,serif" font-size="14.00">password2</text>
<text text-anchor="start" x="350" y="-196.3" font-family="Times,serif" font-size="14.00">submit</text>
<polyline fill="none" stroke="black" points="342,-188.5 518,-188.5 "/>
<text text-anchor="middle" x="430" y="-173.3" font-family="Times,serif" font-size="14.00"> </text>
</g>
<!-- app.main.forms.EditProfileAdminForm -->
<g id="node4" class="node">
<title>app.main.forms.EditProfileAdminForm</title>
<polygon fill="none" stroke="black" points="536,-120.5 536,-324.5 728,-324.5 728,-120.5 536,-120.5"/>
<text text-anchor="middle" x="632" y="-309.3" font-family="Times,serif" font-size="14.00">EditProfileAdminForm</text>
<polyline fill="none" stroke="black" points="536,-301.5 728,-301.5 "/>
<text text-anchor="start" x="544" y="-286.3" font-family="Times,serif" font-size="14.00">about_me</text>
<text text-anchor="start" x="544" y="-271.3" font-family="Times,serif" font-size="14.00">confirmed</text>
<text text-anchor="start" x="544" y="-256.3" font-family="Times,serif" font-size="14.00">email</text>
<text text-anchor="start" x="544" y="-241.3" font-family="Times,serif" font-size="14.00">location</text>
<text text-anchor="start" x="544" y="-226.3" font-family="Times,serif" font-size="14.00">name</text>
<text text-anchor="start" x="544" y="-211.3" font-family="Times,serif" font-size="14.00">role</text>
<text text-anchor="start" x="544" y="-196.3" font-family="Times,serif" font-size="14.00">submit</text>
<text text-anchor="start" x="544" y="-181.3" font-family="Times,serif" font-size="14.00">user</text>
<text text-anchor="start" x="544" y="-166.3" font-family="Times,serif" font-size="14.00">username</text>
<polyline fill="none" stroke="black" points="536,-158.5 728,-158.5 "/>
<text text-anchor="start" x="544" y="-143.3" font-family="Times,serif" font-size="14.00">validate_email(field)</text>
<text text-anchor="start" x="544" y="-128.3" font-family="Times,serif" font-size="14.00">validate_username(field)</text>
</g>
<!-- app.main.forms.EditProfileForm -->
<g id="node5" class="node">
<title>app.main.forms.EditProfileForm</title>
<polygon fill="none" stroke="black" points="746.5,-165.5 746.5,-279.5 877.5,-279.5 877.5,-165.5 746.5,-165.5"/>
<text text-anchor="middle" x="812" y="-264.3" font-family="Times,serif" font-size="14.00">EditProfileForm</text>
<polyline fill="none" stroke="black" points="746.5,-256.5 877.5,-256.5 "/>
<text text-anchor="start" x="754.5" y="-241.3" font-family="Times,serif" font-size="14.00">about_me</text>
<text text-anchor="start" x="754.5" y="-226.3" font-family="Times,serif" font-size="14.00">location</text>
<text text-anchor="start" x="754.5" y="-211.3" font-family="Times,serif" font-size="14.00">name</text>
<text text-anchor="start" x="754.5" y="-196.3" font-family="Times,serif" font-size="14.00">submit</text>
<polyline fill="none" stroke="black" points="746.5,-188.5 877.5,-188.5 "/>
<text text-anchor="middle" x="812" y="-173.3" font-family="Times,serif" font-size="14.00"> </text>
</g>
<!-- app.auth.forms.LoginForm -->
<g id="node6" class="node">
<title>app.auth.forms.LoginForm</title>
<polygon fill="none" stroke="black" points="895.5,-165.5 895.5,-279.5 1014.5,-279.5 1014.5,-165.5 895.5,-165.5"/>
<text text-anchor="middle" x="955" y="-264.3" font-family="Times,serif" font-size="14.00">LoginForm</text>
<polyline fill="none" stroke="black" points="895.5,-256.5 1014.5,-256.5 "/>
<text text-anchor="start" x="903.5" y="-241.3" font-family="Times,serif" font-size="14.00">email</text>
<text text-anchor="start" x="903.5" y="-226.3" font-family="Times,serif" font-size="14.00">password</text>
<text text-anchor="start" x="903.5" y="-211.3" font-family="Times,serif" font-size="14.00">remember_me</text>
<text text-anchor="start" x="903.5" y="-196.3" font-family="Times,serif" font-size="14.00">submit</text>
<polyline fill="none" stroke="black" points="895.5,-188.5 1014.5,-188.5 "/>
<text text-anchor="middle" x="955" y="-173.3" font-family="Times,serif" font-size="14.00"> </text>
</g>
<!-- app.main.forms.NameForm -->
<g id="node7" class="node">
<title>app.main.forms.NameForm</title>
<polygon fill="none" stroke="black" points="1033,-180.5 1033,-264.5 1129,-264.5 1129,-180.5 1033,-180.5"/>
<text text-anchor="middle" x="1081" y="-249.3" font-family="Times,serif" font-size="14.00">NameForm</text>
<polyline fill="none" stroke="black" points="1033,-241.5 1129,-241.5 "/>
<text text-anchor="start" x="1041" y="-226.3" font-family="Times,serif" font-size="14.00">name</text>
<text text-anchor="start" x="1041" y="-211.3" font-family="Times,serif" font-size="14.00">submit</text>
<polyline fill="none" stroke="black" points="1033,-203.5 1129,-203.5 "/>
<text text-anchor="middle" x="1081" y="-188.3" font-family="Times,serif" font-size="14.00"> </text>
</g>
<!-- app.auth.forms.PasswordResetForm -->
<g id="node8" class="node">
<title>app.auth.forms.PasswordResetForm</title>
<polygon fill="none" stroke="black" points="1147.5,-173 1147.5,-272 1310.5,-272 1310.5,-173 1147.5,-173"/>
<text text-anchor="middle" x="1229" y="-256.8" font-family="Times,serif" font-size="14.00">PasswordResetForm</text>
<polyline fill="none" stroke="black" points="1147.5,-249 1310.5,-249 "/>
<text text-anchor="start" x="1155.5" y="-233.8" font-family="Times,serif" font-size="14.00">password</text>
<text text-anchor="start" x="1155.5" y="-218.8" font-family="Times,serif" font-size="14.00">password2</text>
<text text-anchor="start" x="1155.5" y="-203.8" font-family="Times,serif" font-size="14.00">submit</text>
<polyline fill="none" stroke="black" points="1147.5,-196 1310.5,-196 "/>
<text text-anchor="middle" x="1229" y="-180.8" font-family="Times,serif" font-size="14.00"> </text>
</g>
<!-- app.auth.forms.PasswordResetRequestForm -->
<g id="node9" class="node">
<title>app.auth.forms.PasswordResetRequestForm</title>
<polygon fill="none" stroke="black" points="1328.5,-180.5 1328.5,-264.5 1549.5,-264.5 1549.5,-180.5 1328.5,-180.5"/>
<text text-anchor="middle" x="1439" y="-249.3" font-family="Times,serif" font-size="14.00">PasswordResetRequestForm</text>
<polyline fill="none" stroke="black" points="1328.5,-241.5 1549.5,-241.5 "/>
<text text-anchor="start" x="1336.5" y="-226.3" font-family="Times,serif" font-size="14.00">email</text>
<text text-anchor="start" x="1336.5" y="-211.3" font-family="Times,serif" font-size="14.00">submit</text>
<polyline fill="none" stroke="black" points="1328.5,-203.5 1549.5,-203.5 "/>
<text text-anchor="middle" x="1439" y="-188.3" font-family="Times,serif" font-size="14.00"> </text>
</g>
<!-- app.models.Permission -->
<g id="node10" class="node">
<title>app.models.Permission</title>
<polygon fill="none" stroke="black" points="1568,-158 1568,-287 1704,-287 1704,-158 1568,-158"/>
<text text-anchor="middle" x="1636" y="-271.8" font-family="Times,serif" font-size="14.00">Permission</text>
<polyline fill="none" stroke="black" points="1568,-264 1704,-264 "/>
<text text-anchor="start" x="1576" y="-248.8" font-family="Times,serif" font-size="14.00">ADMIN : int</text>
<text text-anchor="start" x="1576" y="-233.8" font-family="Times,serif" font-size="14.00">COMMENT : int</text>
<text text-anchor="start" x="1576" y="-218.8" font-family="Times,serif" font-size="14.00">FOLLOW : int</text>
<text text-anchor="start" x="1576" y="-203.8" font-family="Times,serif" font-size="14.00">MODERATE : int</text>
<text text-anchor="start" x="1576" y="-188.8" font-family="Times,serif" font-size="14.00">WRITE : int</text>
<polyline fill="none" stroke="black" points="1568,-181 1704,-181 "/>
<text text-anchor="middle" x="1636" y="-165.8" font-family="Times,serif" font-size="14.00"> </text>
</g>
<!-- app.auth.forms.RegistrationForm -->
<g id="node11" class="node">
<title>app.auth.forms.RegistrationForm</title>
<polygon fill="none" stroke="black" points="1722,-150.5 1722,-294.5 1914,-294.5 1914,-150.5 1722,-150.5"/>
<text text-anchor="middle" x="1818" y="-279.3" font-family="Times,serif" font-size="14.00">RegistrationForm</text>
<polyline fill="none" stroke="black" points="1722,-271.5 1914,-271.5 "/>
<text text-anchor="start" x="1730" y="-256.3" font-family="Times,serif" font-size="14.00">email</text>
<text text-anchor="start" x="1730" y="-241.3" font-family="Times,serif" font-size="14.00">password</text>
<text text-anchor="start" x="1730" y="-226.3" font-family="Times,serif" font-size="14.00">password2</text>
<text text-anchor="start" x="1730" y="-211.3" font-family="Times,serif" font-size="14.00">submit</text>
<text text-anchor="start" x="1730" y="-196.3" font-family="Times,serif" font-size="14.00">username</text>
<polyline fill="none" stroke="black" points="1722,-188.5 1914,-188.5 "/>
<text text-anchor="start" x="1730" y="-173.3" font-family="Times,serif" font-size="14.00">validate_email(field)</text>
<text text-anchor="start" x="1730" y="-158.3" font-family="Times,serif" font-size="14.00">validate_username(field)</text>
</g>
<!-- app.models.Role -->
<g id="node12" class="node">
<title>app.models.Role</title>
<polygon fill="none" stroke="black" points="1932.5,-113 1932.5,-332 2135.5,-332 2135.5,-113 1932.5,-113"/>
<text text-anchor="middle" x="2034" y="-316.8" font-family="Times,serif" font-size="14.00">Role</text>
<polyline fill="none" stroke="black" points="1932.5,-309 2135.5,-309 "/>
<text text-anchor="start" x="1940.5" y="-293.8" font-family="Times,serif" font-size="14.00">default</text>
<text text-anchor="start" x="1940.5" y="-278.8" font-family="Times,serif" font-size="14.00">default</text>
<text text-anchor="start" x="1940.5" y="-263.8" font-family="Times,serif" font-size="14.00">id</text>
<text text-anchor="start" x="1940.5" y="-248.8" font-family="Times,serif" font-size="14.00">name</text>
<text text-anchor="start" x="1940.5" y="-233.8" font-family="Times,serif" font-size="14.00">permissions</text>
<text text-anchor="start" x="1940.5" y="-218.8" font-family="Times,serif" font-size="14.00">permissions : int</text>
<text text-anchor="start" x="1940.5" y="-203.8" font-family="Times,serif" font-size="14.00">users</text>
<polyline fill="none" stroke="black" points="1932.5,-196 2135.5,-196 "/>
<text text-anchor="start" x="1940.5" y="-180.8" font-family="Times,serif" font-size="14.00">add_permission(perm)</text>
<text text-anchor="start" x="1940.5" y="-165.8" font-family="Times,serif" font-size="14.00">has_permission(perm)</text>
<text text-anchor="start" x="1940.5" y="-150.8" font-family="Times,serif" font-size="14.00">insert_roles()</text>
<text text-anchor="start" x="1940.5" y="-135.8" font-family="Times,serif" font-size="14.00">remove_permission(perm)</text>
<text text-anchor="start" x="1940.5" y="-120.8" font-family="Times,serif" font-size="14.00">reset_permissions()</text>
</g>
<!-- app.models.User -->
<g id="node13" class="node">
<title>app.models.User</title>
<polygon fill="none" stroke="black" points="2154,-0.5 2154,-444.5 2552,-444.5 2552,-0.5 2154,-0.5"/>
<text text-anchor="middle" x="2353" y="-429.3" font-family="Times,serif" font-size="14.00">User</text>
<polyline fill="none" stroke="black" points="2154,-421.5 2552,-421.5 "/>
<text text-anchor="start" x="2162" y="-406.3" font-family="Times,serif" font-size="14.00">about_me</text>
<text text-anchor="start" x="2162" y="-391.3" font-family="Times,serif" font-size="14.00">confirmed</text>
<text text-anchor="start" x="2162" y="-376.3" font-family="Times,serif" font-size="14.00">confirmed : bool</text>
<text text-anchor="start" x="2162" y="-361.3" font-family="Times,serif" font-size="14.00">email</text>
<text text-anchor="start" x="2162" y="-346.3" font-family="Times,serif" font-size="14.00">email</text>
<text text-anchor="start" x="2162" y="-331.3" font-family="Times,serif" font-size="14.00">id</text>
<text text-anchor="start" x="2162" y="-316.3" font-family="Times,serif" font-size="14.00">last_seen</text>
<text text-anchor="start" x="2162" y="-301.3" font-family="Times,serif" font-size="14.00">last_seen : datetime</text>
<text text-anchor="start" x="2162" y="-286.3" font-family="Times,serif" font-size="14.00">location</text>
<text text-anchor="start" x="2162" y="-271.3" font-family="Times,serif" font-size="14.00">member_since</text>
<text text-anchor="start" x="2162" y="-256.3" font-family="Times,serif" font-size="14.00">name</text>
<text text-anchor="start" x="2162" y="-241.3" font-family="Times,serif" font-size="14.00">password</text>
<text text-anchor="start" x="2162" y="-226.3" font-family="Times,serif" font-size="14.00">password_hash</text>
<text text-anchor="start" x="2162" y="-211.3" font-family="Times,serif" font-size="14.00">password_hash</text>
<text text-anchor="start" x="2162" y="-196.3" font-family="Times,serif" font-size="14.00">role</text>
<text text-anchor="start" x="2162" y="-181.3" font-family="Times,serif" font-size="14.00">role_id</text>
<text text-anchor="start" x="2162" y="-166.3" font-family="Times,serif" font-size="14.00">username</text>
<polyline fill="none" stroke="black" points="2154,-158.5 2552,-158.5 "/>
<text text-anchor="start" x="2162" y="-143.3" font-family="Times,serif" font-size="14.00">can(perm)</text>
<text text-anchor="start" x="2162" y="-128.3" font-family="Times,serif" font-size="14.00">change_email(token)</text>
<text text-anchor="start" x="2162" y="-113.3" font-family="Times,serif" font-size="14.00">confirm(token)</text>
<text text-anchor="start" x="2162" y="-98.3" font-family="Times,serif" font-size="14.00">generate_confirmation_token(expiration)</text>
<text text-anchor="start" x="2162" y="-83.3" font-family="Times,serif" font-size="14.00">generate_email_change_token(new_email, expiration)</text>
<text text-anchor="start" x="2162" y="-68.3" font-family="Times,serif" font-size="14.00">generate_reset_token(expiration)</text>
<text text-anchor="start" x="2162" y="-53.3" font-family="Times,serif" font-size="14.00">is_administrator()</text>
<text text-anchor="start" x="2162" y="-38.3" font-family="Times,serif" font-size="14.00">ping()</text>
<text text-anchor="start" x="2162" y="-23.3" font-family="Times,serif" font-size="14.00">reset_password(token, new_password)</text>
<text text-anchor="start" x="2162" y="-8.3" font-family="Times,serif" font-size="14.00">verify_password(password)</text>
</g>
</g>
</svg>
