<?xml version="1.0" encoding="UTF-8" standalone="no"?>
<!DOCTYPE svg PUBLIC "-//W3C//DTD SVG 1.1//EN"
 "http://www.w3.org/Graphics/SVG/1.1/DTD/svg11.dtd">
<!-- Generated by graphviz version 2.43.0 (0)
 -->
<!-- Title: packages_spectra Pages: 1 -->
<svg width="876pt" height="188pt"
 viewBox="0.00 0.00 876.00 188.00" xmlns="http://www.w3.org/2000/svg" xmlns:xlink="http://www.w3.org/1999/xlink">
<g id="graph0" class="graph" transform="scale(1 1) rotate(0) translate(4 184)">
<title>packages_spectra</title>
<polygon fill="white" stroke="transparent" points="-4,4 -4,-184 872,-184 872,4 -4,4"/>
<!-- app -->
<g id="node1" class="node">
<title>app</title>
<polygon fill="none" stroke="black" points="117,-36 63,-36 63,0 117,0 117,-36"/>
<text text-anchor="middle" x="90" y="-14.3" font-family="Times,serif" font-size="14.00">app</text>
</g>
<!-- app.auth -->
<g id="node2" class="node">
<title>app.auth</title>
<polygon fill="none" stroke="black" points="80,-108 0,-108 0,-72 80,-72 80,-108"/>
<text text-anchor="middle" x="40" y="-86.3" font-family="Times,serif" font-size="14.00">app.auth</text>
</g>
<!-- app&#45;&gt;app.auth -->
<g id="edge1" class="edge">
<title>app&#45;&gt;app.auth</title>
<path fill="none" stroke="black" d="M77.64,-36.3C71.77,-44.53 64.63,-54.52 58.16,-63.58"/>
<polygon fill="black" stroke="black" points="52.22,-71.9 54.37,-61.14 55.12,-67.83 58.03,-63.76 58.03,-63.76 58.03,-63.76 55.12,-67.83 61.69,-66.37 52.22,-71.9 52.22,-71.9"/>
</g>
<!-- app.main -->
<g id="node7" class="node">
<title>app.main</title>
<polygon fill="none" stroke="black" points="181.5,-108 98.5,-108 98.5,-72 181.5,-72 181.5,-108"/>
<text text-anchor="middle" x="140" y="-86.3" font-family="Times,serif" font-size="14.00">app.main</text>
</g>
<!-- app&#45;&gt;app.main -->
<g id="edge2" class="edge">
<title>app&#45;&gt;app.main</title>
<path fill="none" stroke="black" d="M102.36,-36.3C108.23,-44.53 115.37,-54.52 121.84,-63.58"/>
<polygon fill="black" stroke="black" points="127.78,-71.9 118.31,-66.37 124.88,-67.83 121.97,-63.76 121.97,-63.76 121.97,-63.76 124.88,-67.83 125.63,-61.14 127.78,-71.9 127.78,-71.9"/>
</g>
<!-- app.auth.forms -->
<g id="node3" class="node">
<title>app.auth.forms</title>
<polygon fill="none" stroke="black" points="467.5,-108 342.5,-108 342.5,-72 467.5,-72 467.5,-108"/>
<text text-anchor="middle" x="405" y="-86.3" font-family="Times,serif" font-size="14.00">app.auth.forms</text>
</g>
<!-- app.auth.views -->
<g id="node4" class="node">
<title>app.auth.views</title>
<polygon fill="none" stroke="black" points="467.5,-36 342.5,-36 342.5,0 467.5,0 467.5,-36"/>
<text text-anchor="middle" x="405" y="-14.3" font-family="Times,serif" font-size="14.00">app.auth.views</text>
</g>
<!-- app.auth.views&#45;&gt;app.auth.forms -->
<g id="edge3" class="edge">
<title>app.auth.views&#45;&gt;app.auth.forms</title>
<path fill="none" stroke="black" d="M405,-36.3C405,-44.02 405,-53.29 405,-61.89"/>
<polygon fill="black" stroke="black" points="405,-71.9 400.5,-61.9 405,-66.9 405,-61.9 405,-61.9 405,-61.9 405,-66.9 409.5,-61.9 405,-71.9 405,-71.9"/>
</g>
<!-- app.decorators -->
<g id="node5" class="node">
<title>app.decorators</title>
<polygon fill="none" stroke="black" points="324,-108 200,-108 200,-72 324,-72 324,-108"/>
<text text-anchor="middle" x="262" y="-86.3" font-family="Times,serif" font-size="14.00">app.decorators</text>
</g>
<!-- app.models -->
<g id="node11" class="node">
<title>app.models</title>
<polygon fill="none" stroke="black" points="250,-180 152,-180 152,-144 250,-144 250,-180"/>
<text text-anchor="middle" x="201" y="-158.3" font-family="Times,serif" font-size="14.00">app.models</text>
</g>
<!-- app.decorators&#45;&gt;app.models -->
<g id="edge4" class="edge">
<title>app.decorators&#45;&gt;app.models</title>
<path fill="none" stroke="black" d="M246.92,-108.3C239.61,-116.7 230.69,-126.93 222.66,-136.14"/>
<polygon fill="black" stroke="black" points="215.91,-143.9 219.08,-133.4 219.19,-140.13 222.48,-136.36 222.48,-136.36 222.48,-136.36 219.19,-140.13 225.87,-139.31 215.91,-143.9 215.91,-143.9"/>
</g>
<!-- app.email -->
<g id="node6" class="node">
<title>app.email</title>
<polygon fill="none" stroke="black" points="572,-36 486,-36 486,0 572,0 572,-36"/>
<text text-anchor="middle" x="529" y="-14.3" font-family="Times,serif" font-size="14.00">app.email</text>
</g>
<!-- app.main&#45;&gt;app.models -->
<g id="edge5" class="edge">
<title>app.main&#45;&gt;app.models</title>
<path fill="none" stroke="black" d="M155.08,-108.3C162.39,-116.7 171.31,-126.93 179.34,-136.14"/>
<polygon fill="black" stroke="black" points="186.09,-143.9 176.13,-139.31 182.81,-140.13 179.52,-136.36 179.52,-136.36 179.52,-136.36 182.81,-140.13 182.92,-133.4 186.09,-143.9 186.09,-143.9"/>
</g>
<!-- app.main.errors -->
<g id="node8" class="node">
<title>app.main.errors</title>
<polygon fill="none" stroke="black" points="721.5,-36 590.5,-36 590.5,0 721.5,0 721.5,-36"/>
<text text-anchor="middle" x="656" y="-14.3" font-family="Times,serif" font-size="14.00">app.main.errors</text>
</g>
<!-- app.main.forms -->
<g id="node9" class="node">
<title>app.main.forms</title>
<polygon fill="none" stroke="black" points="868,-108 740,-108 740,-72 868,-72 868,-108"/>
<text text-anchor="middle" x="804" y="-86.3" font-family="Times,serif" font-size="14.00">app.main.forms</text>
</g>
<!-- app.main.views -->
<g id="node10" class="node">
<title>app.main.views</title>
<polygon fill="none" stroke="black" points="868,-36 740,-36 740,0 868,0 868,-36"/>
<text text-anchor="middle" x="804" y="-14.3" font-family="Times,serif" font-size="14.00">app.main.views</text>
</g>
<!-- app.main.views&#45;&gt;app.main.forms -->
<g id="edge6" class="edge">
<title>app.main.views&#45;&gt;app.main.forms</title>
<path fill="none" stroke="black" d="M804,-36.3C804,-44.02 804,-53.29 804,-61.89"/>
<polygon fill="black" stroke="black" points="804,-71.9 799.5,-61.9 804,-66.9 804,-61.9 804,-61.9 804,-61.9 804,-66.9 808.5,-61.9 804,-71.9 804,-71.9"/>
</g>
</g>
</svg>
